#!OML:ASF F:\VICON\USERDATA\INSTALL\rory3\rory3.ASF
:FULLY-SPECIFIED
:DEGREES
4314
root 7.27735 17.7709 5.68008 -1808.3 -53.6485 -350.64
lowerback 10.8012 -0.59715 -5.3336
upperback 1.24089 -1.43868 0.254219
thorax -4.62331 -0.623212 3.48293
lowerneck -17.392 -4.98759 -11.4035
upperneck 27.1391 -6.68953 9.02663
head 12.6055 -3.12151 4.30308
rclavicle -2.15681e-014 0
rhumerus -40.5109 -12.9729 -77.6276
rradius 29.4133
rwrist 5.12181
rhand -16.2592 8.80218
rfingers 7.12502
rthumb 9.95013 -20.9427
lclavicle -2.15681e-014 0
lhumerus -26.7629 -7.47196 84.5282
lradius 42.0636
lwrist -0.532725
lhand -18.1628 23.6488
lfingers 7.12502
lthumb 8.11317 53.4731
rfemur -27.5744 -1.7762 15.3203
rtibia 24.7583
rfoot -6.99821 -2.59357
rtoes 7.94918
lfemur 12.4015 -0.995051 -27.9058
ltibia 4.6013
lfoot -9.57106 -6.37049
ltoes -6.21343
4315
root 7.17902 17.7582 5.74744 -1808.66 -53.7169 -350.279
lowerback 10.7107 -0.552745 -5.40704
upperback 1.29607 -1.38534 0.188974
thorax -4.52007 -0.6007 3.44531
lowerneck -17.3819 -4.98381 -11.5008
upperneck 27.1668 -6.65157 9.01081
head 12.6134 -3.11723 4.32105
rclavicle 1.73937e-013 -1.11319e-014
rhumerus -40.4276 -13.2113 -77.5733
rradius 29.3619
rwrist 5.45421
rhand -16.2475 9.06358
rfingers 7.12502
rthumb 9.96139 -20.6807
lclavicle 1.73937e-013 -1.11319e-014
lhumerus -26.5584 -7.67975 84.5849
lradius 42.147
lwrist -0.490497
lhand -18.1685 24.3103
lfingers 7.12502
lthumb 8.10767 54.1348
rfemur -27.3805 -1.34376 15.0233
rtibia 24.0107
rfoot -7.97323 -2.65259
rtoes 6.088
lfemur 13.4834 -1.04763 -28.2226
ltibia 3.46251
lfoot -9.14321 -6.19343
ltoes -6.4308
4316
root 7.08645 17.7486 5.80892 -1808.82 -53.6918 -350.099
lowerback 10.701 -0.567766 -5.42794
upperback 1.32181 -1.40767 0.170729
thorax -4.48539 -0.613259 3.44044
lowerneck -17.6032 -4.94856 -11.2284
upperneck 27.372 -6.52677 8.53661
head 12.6968 -3.08868 4.11183
rclavicle -4.67144e-014 -2.78299e-015
rhumerus -40.239 -12.9714 -77.8817
rradius 29.421
rwrist 5.11041
rhand -16.5377 8.7566
rfingers 7.12502
rthumb 9.68141 -21.0009
lclavicle -4.67144e-014 -2.78299e-015
lhumerus -26.3792 -7.62045 84.5654
lradius 42.2572
lwrist -0.669774
lhand -18.1226 24.6966
lfingers 7.12502
lthumb 8.15201 54.5193
rfemur -27.2725 -1.13301 14.8833
rtibia 23.5589
rfoot -8.68004 -2.61217
rtoes 4.71501
lfemur 14.5866 -1.21843 -28.4116
ltibia 2.08637
lfoot -8.41607 -6.18863
ltoes -5.12948
4317
root 6.99967 17.7365 5.85685 -1808.83 -53.4409 -349.953
lowerback 10.7726 -0.628706 -5.54617
upperback 1.27979 -1.50884 0.151004
thorax -4.55705 -0.658073 3.50295
lowerneck -17.6692 -4.93023 -10.8608
upperneck 27.368 -6.46 8.07256
head 12.6678 -3.0759 3.87602
rclavicle 6.95746e-016 -3.97569e-015
rhumerus -40.0466 -12.3325 -78.4156
rradius 29.6096
rwrist 4.35191
rhand -17.0773 8.29986
rfingers 7.12502
rthumb 9.16078 -21.4812
lclavicle 6.95746e-016 -3.97569e-015
lhumerus -26.2039 -7.6599 84.5244
lradius 42.2264
lwrist -0.895242
lhand -17.8779 24.5065
lfingers 7.12502
lthumb 8.38816 54.32
rfemur -27.3254 -1.38716 14.8476
rtibia 23.3955
rfoot -8.93091 -2.45292
rtoes 1.30631
lfemur 15.887 -1.62458 -28.6329
ltibia -3.49861e-014
lfoot -7.35649 -6.1157
ltoes -4.96275
4318
root 6.91285 17.7221 5.90169 -1808.98 -53.2373 -349.685
lowerback 10.9341 -0.667168 -5.75679
upperback 1.20365 -1.59817 0.136094
thorax -4.713 -0.691629 3.62422
lowerneck -17.5634 -4.97343 -11.101
upperneck 27.2672 -6.53626 8.34271
head 12.6347 -3.10246 4.00901
rclavicle 1.00883e-014 -1.43125e-014
rhumerus -39.7967 -12.8008 -78.1773
rradius 29.2417
rwrist 5.50274
rhand -16.7045 8.71989
rfingers 7.12502
rthumb 9.52042 -21.045
lclavicle 1.00883e-014 -1.43125e-014
lhumerus -26.0931 -7.73077 84.5068
lradius 42.1418
lwrist -1.0028
lhand -17.2472 24.1061
lfingers 7.12502
lthumb 8.99683 53.8943
rfemur -27.3561 -1.53727 14.7481
rtibia 23.4865
rfoot -8.75089 -2.45915
rtoes -1.17471
lfemur 16.1796 -1.97481 -28.8918
ltibia -4.77083e-014
lfoot -7.41335 -5.7533
ltoes -7.37194
4319
root 6.81999 17.7102 5.95348 -1809.36 -53.2484 -349.309
lowerback 11.1315 -0.628854 -5.95108
upperback 1.15967 -1.58765 0.103739
thorax -4.8663 -0.677044 3.70443
lowerneck -17.4246 -4.99749 -11.48
upperneck 27.2056 -6.57864 8.70585
head 12.6163 -3.11898 4.2099
rclavicle -4.87519e-014 4.77083e-015
rhumerus -39.6427 -13.3724 -77.8118
rradius 28.8851
rwrist 6.82558
rhand -16.0223 9.46115
rfingers 7.12502
rthumb 10.1787 -20.2726
lclavicle -4.87519e-014 4.77083e-015
lhumerus -25.9763 -7.87995 84.5158
lradius 42.0372
lwrist -0.956149
lhand -17.1634 24.1084
lfingers 7.12502
lthumb 9.07769 53.893
rfemur -27.2534 -1.25869 14.527
rtibia 23.8152
rfoot -8.14723 -2.46173
rtoes -0.0679643
lfemur 16.6389 -2.08176 -29.1852
ltibia -3.18055e-015
lfoot -7.53301 -5.4633
ltoes -10.0412
4320
root 6.72324 17.7093 6.00964 -1809.35 -53.348 -349.172
lowerback 11.0202 -0.585578 -5.9084
upperback 1.11785 -1.52118 0.0481243
thorax -4.85808 -0.644711 3.60982
lowerneck -17.4537 -4.98304 -11.4559
upperneck 27.2427 -6.57645 8.74196
head 12.6372 -3.11092 4.22132
rclavicle 3.13086e-015 -2.06736e-014
rhumerus -39.6356 -12.6833 -78.3191
rradius 29.2713
rwrist 6.28771
rhand -16.2748 9.08309
rfingers 7.12502
rthumb 9.93508 -20.6625
lclavicle 3.13086e-015 -2.06736e-014
lhumerus -25.7128 -8.221 84.4639
lradius 41.8276
lwrist -0.836514
lhand -17.7049 24.3365
lfingers 7.12502
lthumb 8.55512 54.1432
rfemur -27.3436 -1.08668 14.5076
rtibia 24.3255
rfoot -7.20593 -2.19682
rtoes 3.12723
lfemur 16.9059 -2.16645 -29.2624
ltibia -3.18055e-015
lfoot -7.46678 -5.3605
ltoes -10.2224
4321
root 6.62407 17.7133 6.07149 -1809.26 -53.5044 -349.268
lowerback 10.9555 -0.541651 -5.70834
upperback 1.13276 -1.43254 0.0680362
thorax -4.81976 -0.606265 3.50327
lowerneck -17.5077 -4.99155 -11.4752
upperneck 27.2449 -6.57244 8.73352
head 12.6494 -3.11036 4.22163
rclavicle 3.59303e-014 -1.19271e-014
rhumerus -39.393 -12.7302 -78.4113
rradius 29.2008
rwrist 6.45508
rhand -16.7778 8.80184
rfingers 7.12502
rthumb 9.44971 -20.9663
lclavicle 3.59303e-014 -1.19271e-014
lhumerus -25.5042 -8.26618 84.4844
lradius 41.5804
lwrist -1.02027
lhand -18.0294 24.3619
lfingers 7.12502
lthumb 8.24199 54.1811
rfemur -27.3195 -1.13536 14.7199
rtibia 24.9856
rfoot -6.06786 -1.8148
rtoes 6.31216
lfemur 17.2991 -2.20385 -29.1832
ltibia -9.54166e-015
lfoot -7.34649 -5.38126
ltoes -10.1937
4322
root 6.53022 17.713 6.12268 -1809.32 -53.5139 -349.327
lowerback 11.2588 -0.492617 -5.65488
upperback 1.06404 -1.37763 0.157812
thorax -5.066 -0.569912 3.56805
lowerneck -17.3968 -5.02184 -11.5652
upperneck 27.2324 -6.5468 8.56263
head 12.6159 -3.13197 4.17438
rclavicle -2.85256e-014 -1.03368e-014
rhumerus -39.1343 -13.467 -77.9283
rradius 28.6974
rwrist 7.34737
rhand -16.5222 9.23756
rfingers 7.12502
rthumb 9.69639 -20.5192
lclavicle -2.85256e-014 -1.03368e-014
lhumerus -25.7021 -8.01225 84.6852
lradius 41.5709
lwrist -1.47906
lhand -18.17 24.418
lfingers 7.12502
lthumb 8.10622 54.2425
rfemur -27.1868 -1.27058 14.9468
rtibia 25.678
rfoot -4.54891 -1.77559
rtoes 6.92077
lfemur 17.7848 -2.36665 -29.1375
ltibia -3.18055e-014
lfoot -7.23829 -5.35472
ltoes -11.5075
4323
root 6.42341 17.7125 6.19708 -1809.46 -53.8306 -349.136
lowerback 11.1176 -0.381649 -5.55006
upperback 1.03903 -1.20942 0.14098
thorax -5.03322 -0.489684 3.46317
lowerneck -17.4231 -5.01985 -11.5496
upperneck 27.3379 -6.50951 8.41731
head 12.6532 -3.13293 4.12334
rclavicle 4.82053e-014 1.35174e-014
rhumerus -39.0981 -12.9267 -78.1301
rradius 28.8835
rwrist 6.94056
rhand -16.1715 9.37932
rfingers 7.12502
rthumb 10.0347 -20.3615
lclavicle 4.82053e-014 1.35174e-014
lhumerus -25.9681 -7.60605 84.8213
lradius 41.5953
lwrist -1.93365
lhand -18.5863 24.4646
lfingers 7.12502
lthumb 7.70442 54.3042
rfemur -27.2295 -1.80057 15.1997
rtibia 26.3233
rfoot -2.73801 -1.03507
rtoes 7.55227
lfemur 18.2313 -2.21038 -29.2435
ltibia 3.18055e-015
lfoot -7.0823 -5.29248
ltoes -11.4261
4324
root 6.31886 17.7145 6.26458 -1809.76 -54.0001 -348.872
lowerback 11.1006 -0.36236 -5.51004
upperback 1.10188 -1.18075 0.0711555
thorax -4.96261 -0.481003 3.36169
lowerneck -17.6094 -4.978 -11.5619
upperneck 27.4763 -6.44337 8.45022
head 12.7413 -3.09841 4.15222
rclavicle -4.84041e-014 2.14687e-014
rhumerus -38.8973 -12.152 -78.6354
rradius 29.1355
rwrist 6.39529
rhand -16.3889 9.0328
rfingers 7.12502
rthumb 9.82493 -20.718
lclavicle -4.84041e-014 2.14687e-014
lhumerus -25.9427 -7.08639 84.7329
lradius 41.3801
lwrist -2.1318
lhand -18.8433 23.9417
lfingers 7.12502
lthumb 7.45639 53.7903
rfemur -27.1866 -2.18047 15.2962
rtibia 26.8694
rfoot -1.14638 -0.36273
rtoes 9.91555
lfemur 18.7433 -2.17973 -29.3967
ltibia 1.27222e-014
lfoot -6.7237 -5.27627
ltoes -10.5015
4325
root 6.21618 17.7191 6.32129 -1810.01 -54.1318 -348.708
lowerback 11.2408 -0.315345 -5.52431
upperback 1.12161 -1.13013 0.0548907
thorax -5.02507 -0.454775 3.34778
lowerneck -17.6139 -4.95313 -11.5307
upperneck 27.4893 -6.39567 8.38136
head 12.7376 -3.0827 4.12805
rclavicle 7.40473e-014 -1.03368e-014
rhumerus -38.634 -12.165 -78.7099
rradius 29.0044
rwrist 6.66403
rhand -16.5015 8.88585
rfingers 7.12502
rthumb 9.71635 -20.87
lclavicle 7.40473e-014 -1.03368e-014
lhumerus -25.9899 -6.49457 84.6787
lradius 41.1386
lwrist -2.40908
lhand -18.7207 23.4194
lfingers 7.12502
lthumb 7.57475 53.2638
rfemur -27.0817 -1.74991 15.265
rtibia 27.3032
rfoot -0.281035 -0.425775
rtoes 11.3108
lfemur 19.245 -2.19737 -29.4681
ltibia -2.8625e-014
lfoot -6.39619 -5.26806
ltoes -10.906
4326
root 6.11029 17.7311 6.37438 -1809.83 -54.2363 -348.957
lowerback 11.3956 -0.259898 -5.37409
upperback 1.05067 -1.04266 0.161758
thorax -5.19538 -0.406798 3.36617
lowerneck -17.527 -4.93252 -11.4068
upperneck 27.4236 -6.32969 8.12945
head 12.6704 -3.07262 4.01723
rclavicle -3.10104e-014 -8.74653e-015
rhumerus -38.4975 -12.2706 -78.5934
rradius 28.9256
rwrist 6.84338
rhand -16.2431 9.13706
rfingers 7.12502
rthumb 9.96563 -20.607
lclavicle -3.10104e-014 -8.74653e-015
lhumerus -26.2608 -5.92993 84.7749
lradius 40.964
lwrist -2.84705
lhand -18.2229 23.4417
lfingers 7.12502
lthumb 8.05517 53.2682
rfemur -26.9683 -1.31548 15.4692
rtibia 27.602
rfoot -0.206721 -0.457094
rtoes 11.3012
lfemur 19.659 -2.30252 -29.2867
ltibia 0
lfoot -6.12556 -5.24488
ltoes -12.6271
4327
root 6.00158 17.749 6.42664 -1809.34 -54.2412 -349.49
lowerback 11.4375 -0.285042 -5.12859
upperback 1.02232 -1.03618 0.355647
thorax -5.24968 -0.404358 3.43196
lowerneck -17.6428 -4.91155 -11.3899
upperneck 27.4774 -6.25537 8.00978
head 12.7023 -3.05041 3.98018
rclavicle 5.66536e-014 -1.35174e-014
rhumerus -38.1632 -12.2226 -78.5625
rradius 28.826
rwrist 6.83544
rhand -16.1971 9.17615
rfingers 7.12502
rthumb 10.01 -20.5658
lclavicle 5.66536e-014 -1.35174e-014
lhumerus -26.454 -5.38288 84.8987
lradius 40.7676
lwrist -3.31972
lhand -17.5523 23.5748
lfingers 7.12502
lthumb 8.7024 53.3754
rfemur -26.8148 -1.17517 15.862
rtibia 27.8545
rfoot -0.558249 -0.289371
rtoes 10.5072
lfemur 19.9959 -2.54888 -28.9313
ltibia -2.54444e-014
lfoot -5.74174 -5.28246
ltoes -14.4515
